<svg fill="none" height="512" viewBox="0 0 24 24" width="512" xmlns="http://www.w3.org/2000/svg"><g clip-rule="evenodd" fill="rgb(0,0,0)" fill-rule="evenodd"><path d="m8.5 11.7676c-.29417-.1702-.63571-.2676-1-.2676-1.10457 0-2 .8954-2 2s.89543 2 2 2 2-.8954 2-2v-4.69098l1.2764.63819c.247.1235.5473.02339.6708-.2236s.0234-.54733-.2236-.67082l-1.99999-1c-.155-.0775-.33907-.06922-.48648.02189-.1474.0911-.23713.25203-.23713.42532zm-1 .7324c-.55228 0-1 .4477-1 1s.44772 1 1 1 1-.4477 1-1-.44772-1-1-1z"/><path d="m1.5 3c0-.27614.22386-.5.5-.5h13c.2761 0 .5.22386.5.5v1.5192c3.9101.27804 7 3.51828 7 7.4808 0 3.9625-3.0899 7.2028-7 7.4808v1.5192c0 .2761-.2239.5-.5.5h-13c-.27614 0-.5-.2239-.5-.5zm14 6.55218v-4.03005c3.3623.27557 6 3.0733 6 6.47787 0 3.4046-2.6377 6.2023-6 6.4779v-4.0301c1.14-.2354 2-1.2396 2-2.4478s-.86-2.21236-2-2.44782zm0 1.03612v2.8234c.5844-.2087 1-.7638 1-1.4117s-.4156-1.203-1-1.4117zm-13-7.0883v17h12v-17z"/></g></svg>